:SAMPLES-PER-SECOND 30
:FRAME-RANGE 1-2775
:FULLY-SPECIFIED
:DEGREES
434
root  -26.6362 40.1372 -12.464 -172.795 -62.3646 174.505
RightUpLeg  -6.39932 -8.94826 -3.65922
RightLeg  6.36126 -19.3261 2.72202
RightFoot  -3.89234 -0.188379 2.48575
RightToes  -5.28216e-011 1.2921e-014 -6.02303e-014
Spine  9.87261 1.14055 6.26628
Spine1  -2.14267 2.68665 -6.15034
HEad  -14.7194 18.2474 -9.7334
LeftShoulder1  1.54923 -0.336758 -34.2731
LeftArm  13.1381 7.35901 -32.5664
LeftForeArm  11.3731 -31.1513 -6.19125
LeftHand  0.159738 -1.45982 -2.58506
RightShoulder  7.59951 10.6505 47.0074
RightArm  14.0854 -3.34329 13.4802
RightForeArm  15.878 0.12377 17.5018
RightHand  0.365189 3.75498 4.37281
LeftUpLeg  -10.3158 19.728 2.54011
LeftLeg  14.4964 4.07773 0.875537
LeftFoot  -4.10493 0.59103 -8.94571
LeftToes  -2.158e-010 -1.26819e-010 -1.05346e-011
435
root  -26.093 40.1488 -12.236 -171.463 -66.7311 173.519
RightUpLeg  -6.83913 -9.53678 -3.9634
RightLeg  5.62065 -23.1492 3.23813
RightFoot  -3.07466 -0.160356 1.9285
RightToes  -5.28216e-011 1.2921e-014 -6.02303e-014
Spine  9.50409 0.904636 5.76471
Spine1  -1.97593 2.3766 -5.9149
HEad  -14.1568 16.0033 -9.63231
LeftShoulder1  1.55174 -0.330493 -34.4024
LeftArm  13.1094 7.31943 -32.4898
LeftForeArm  11.3739 -31.3674 -6.24521
LeftHand  0.151431 -1.36932 -2.48533
RightShoulder  7.19741 9.86217 47.1539
RightArm  17.258 -4.21247 13.4528
RightForeArm  12.9117 1.18783 17.7131
RightHand  0.336636 3.49423 4.14819
LeftUpLeg  -8.523 21.8162 3.02403
LeftLeg  15.8846 5.38136 1.81283
LeftFoot  -4.61687 0.521833 -8.40176
LeftToes  -2.158e-010 -1.26819e-010 -1.05346e-011
436
root  -25.5606 40.1355 -11.9953 -169.889 -71.6884 172.197
RightUpLeg  -7.15577 -10.3552 -4.40749
RightLeg  5.18573 -27.2675 3.82562
RightFoot  -2.54048 -0.138096 1.57362
RightToes  -5.28216e-011 1.2921e-014 -6.02303e-014
Spine  9.20077 0.590995 5.19719
Spine1  -1.72956 1.94722 -5.43949
HEad  -13.716 13.423 -9.26519
LeftShoulder1  1.58065 -0.379678 -34.6313
LeftArm  13.6298 6.94493 -32.4287
LeftForeArm  11.1353 -31.3555 -6.25582
LeftHand  0.137346 -1.25232 -2.29356
RightShoulder  6.73399 8.96116 47.3151
RightArm  16.5432 -4.97155 13.641
RightForeArm  13.2881 0.985513 17.66
RightHand  0.333965 3.43323 4.14637
LeftUpLeg  -6.61185 23.8498 4.3294
LeftLeg  16.7541 6.02472 2.29201
LeftFoot  -5.03235 0.462794 -7.84259
LeftToes  -2.158e-010 -1.26819e-010 -1.05346e-011
437
root  -25.0479 40.1133 -11.7505 -167.172 -77.1517 169.788
RightUpLeg  -7.42927 -11.377 -4.98448
RightLeg  4.8777 -31.7061 4.50021
RightFoot  -2.09755 -0.110915 1.19702
RightToes  -5.28216e-011 1.2921e-014 -6.02303e-014
Spine  8.70391 0.213598 4.47036
Spine1  -1.40239 1.3919 -4.74275
HEad  -13.2171 10.7239 -8.8922
LeftShoulder1  1.60232 -0.417719 -34.7868
LeftArm  14.1381 6.59905 -32.5508
LeftForeArm  11.183 -31.3279 -6.2462
LeftHand  0.150797 -1.40293 -2.45884
RightShoulder  6.32757 8.15558 47.5394
RightArm  17.0607 -6.00515 13.9343
RightForeArm  12.3232 1.72226 17.5403
RightHand  0.307018 3.25728 3.88296
LeftUpLeg  -4.71918 27.2854 6.34572
LeftLeg  16.645 4.6088 1.76462
LeftFoot  -4.95675 0.437919 -7.31319
LeftToes  -2.158e-010 -1.26819e-010 -1.05346e-011
438
root  -24.547 40.0996 -11.4944 -159.943 -82.8875 162.91
RightUpLeg  -7.60222 -12.4784 -5.70265
RightLeg  4.50507 -36.5023 5.19646
RightFoot  -1.60757 -0.0955732 1.02052
RightToes  -5.28216e-011 1.2921e-014 -6.02303e-014
Spine  8.16016 -0.174005 3.49314
Spine1  -1.09871 0.772877 -3.9051
HEad  -12.6546 8.05035 -8.47655
LeftShoulder1  1.6175 -0.449845 -34.8383
LeftArm  14.3021 6.4363 -32.8896
LeftForeArm  11.5707 -31.3237 -6.22306
LeftHand  0.169584 -1.54202 -2.71202
RightShoulder  5.87157 7.26466 47.7715
RightArm  19.3555 -7.04883 14.4004
RightForeArm  10.6204 3.52801 17.2459
RightHand  0.31539 3.27258 3.987
LeftUpLeg  -2.88412 31.6101 8.90577
LeftLeg  15.4079 4.00965 0.852871
LeftFoot  -4.12514 0.478243 -7.18674
LeftToes  -2.158e-010 -1.26819e-010 -1.05346e-011
439
root  -24.0716 40.1111 -11.2006 -108.076 -87.9564 111.291
RightUpLeg  -7.28046 -13.6379 -6.64913
RightLeg  3.64268 -41.188 6.24237
RightFoot  -0.949217 -0.0869796 0.926904
RightToes  -5.28216e-011 1.2921e-014 -6.02303e-014
Spine  7.81467 -0.606584 2.53149
Spine1  -0.971471 0.131529 -3.2376
HEad  -12.0207 5.56096 -8.16066
LeftShoulder1  1.62135 -0.447373 -34.9591
LeftArm  14.3271 6.58925 -33.0152
LeftForeArm  12.0295 -31.8371 -6.32595
LeftHand  0.181863 -1.69545 -2.8407
RightShoulder  5.41187 6.38577 47.9521
RightArm  23.4667 -8.12619 15.0034
RightForeArm  8.12388 6.26525 16.587
RightHand  0.29828 3.2167 3.78666
LeftUpLeg  -0.913533 33.2126 11.9151
LeftLeg  13.3463 8.70499 -0.154301
LeftFoot  -2.83305 0.509869 -6.62218
LeftToes  -2.158e-010 -1.26819e-010 -1.05346e-011
440
root  -23.591 40.0793 -10.828 -12.3578 -84.0672 15.7822
RightUpLeg  -7.06985 -15.0985 -7.78832
RightLeg  3.70542 -46.0336 6.81481
RightFoot  -0.484165 -0.0816998 0.824617
RightToes  -5.28216e-011 1.2921e-014 -6.02303e-014
Spine  7.50447 -1.0841 1.89887
Spine1  -0.837497 -0.528977 -2.58693
HEad  -11.1313 3.4185 -8.18748
LeftShoulder1  1.63413 -0.463244 -35.1141
LeftArm  14.5925 6.65322 -33.168
LeftForeArm  12.4921 -32.3473 -6.42906
LeftHand  0.184199 -1.71134 -2.87116
RightShoulder  4.88448 5.42319 47.9531
RightArm  28.9671 -9.1974 15.7334
RightForeArm  4.52628 9.60912 15.3674
RightHand  0.308774 3.32005 3.87358
LeftUpLeg  0.108042 34.6376 14.6981
LeftLeg  12.0544 16.7423 -0.55895
LeftFoot  -1.57496 0.545007 -6.26582
LeftToes  -2.158e-010 -1.26819e-010 -1.05346e-011
441
root  -23.108 40.0353 -10.3639 -2.70197 -77.7136 6.24607
RightUpLeg  -6.60104 -16.7145 -9.19081
RightLeg  4.08961 -50.8486 7.04902
RightFoot  0.17987 -0.107838 1.08063
RightToes  -5.28216e-011 1.2921e-014 -6.02303e-014
Spine  7.08285 -1.42356 1.50965
Spine1  -0.560526 -1.01255 -2.01301
HEad  -9.90768 2.28025 -8.7942
LeftShoulder1  1.65094 -0.488023 -35.2765
LeftArm  14.7982 6.74476 -33.4737
LeftForeArm  13.2143 -32.9407 -6.53987
LeftHand  0.210129 -1.75453 -3.27252
RightShoulder  4.38512 4.50848 47.9748
RightArm  36.3285 -10.3113 16.0452
RightForeArm  -1.30085 13.639 13.2475
RightHand  0.313503 3.32415 3.93437
LeftUpLeg  0.570084 34.4616 16.628
LeftLeg  10.9751 28.6563 -0.708135
LeftFoot  -0.225148 0.431096 -4.41611
LeftToes  -2.158e-010 -1.26819e-010 -1.05346e-011
442
root  -22.6414 39.9703 -9.80057 1.1478 -71.2681 2.45347
RightUpLeg  -5.57892 -18.1106 -10.5544
RightLeg  3.70858 -55.832 7.76295
RightFoot  1.21215 -0.110408 1.07855
RightToes  -5.28216e-011 1.2921e-014 -6.02303e-014
Spine  6.12368 -1.62785 1.60157
Spine1  0.0567798 -1.31247 -1.51805
HEad  -8.36926 2.05902 -9.46708
LeftShoulder1  1.6441 -0.471448 -35.2767
LeftArm  15.1307 6.97535 -33.9007
LeftForeArm  13.9603 -33.7563 -6.7093
LeftHand  0.22024 -1.66183 -3.49146
RightShoulder  3.98534 3.80244 47.8221
RightArm  42.9253 -11.5616 16.25
RightForeArm  -6.88032 17.0238 10.7833
RightHand  0.303344 3.24876 3.83813
LeftUpLeg  0.45045 34.3339 17.816
LeftLeg  10.0066 37.8783 -1.35146
LeftFoot  0.70514 0.291429 -2.80295
LeftToes  -2.158e-010 -1.26819e-010 -1.05346e-011
443
root  -22.1546 39.8817 -9.12756 2.56326 -64.7748 0.764213
RightUpLeg  -3.86852 -19.6133 -12.3537
RightLeg  3.43424 -60.7245 8.35193
RightFoot  2.26144 -0.156314 1.43957
RightToes  -5.28216e-011 1.2921e-014 -6.02303e-014
Spine  5.68748 -1.68603 1.89079
Spine1  0.0891395 -1.39687 -1.271
HEad  -5.99381 2.46871 -9.9374
LeftShoulder1  1.62716 -0.458461 -34.9903
LeftArm  15.5315 7.43539 -34.5018
LeftForeArm  14.807 -34.6866 -6.90718
LeftHand  0.216768 -1.5519 -3.56493
RightShoulder  3.5377 3.00417 47.6701
RightArm  48.3411 -12.7816 16.1574
RightForeArm  -11.0403 19.5593 8.58379
RightHand  0.33478 3.52484 4.10754
LeftUpLeg  -0.0323924 31.7736 17.5748
LeftLeg  8.12206 42.4288 -2.90032
LeftFoot  2.39093 0.292918 -2.55333
LeftToes  -2.158e-010 -1.26819e-010 -1.05346e-011
